<svg width="213" height="134" viewBox="0 0 213 134" fill="none" xmlns="http://www.w3.org/2000/svg">
<g clip-path="url(#clip0_41_27)">
<path d="M212.987 67.4845C212.987 67.6004 213 67.7144 213 67.8313C213 91.7881 199.876 112.729 180.299 124.147C169.919 130.392 157.718 134 144.673 134C106.998 134 76.3465 103.946 76.3465 67.001C76.3465 30.0562 106.998 0 144.673 0C182.349 0 213 30.0562 213 67.001C213 67.1631 212.988 67.3223 212.987 67.4845ZM2.6883 76.7383V66.1205H7.7291C8.84939 66.1205 9.82044 66.0606 10.6413 65.9377C11.4749 65.8277 12.222 65.6508 12.8818 65.4071C13.5407 65.1506 14.1573 64.8145 14.7297 64.3998C15.7253 63.6923 16.4842 62.8138 17.0066 61.7643C17.5299 60.7148 17.7911 59.5552 17.7911 58.2866C17.7911 57.3835 17.6507 56.5296 17.3708 55.7238C17.091 54.918 16.6826 54.1829 16.1475 53.5177C15.6124 52.8524 14.9771 52.2942 14.2437 51.8422C13.3973 51.3174 12.439 50.945 11.3688 50.7259C10.3114 50.5185 8.87394 50.4144 7.05654 50.4144H0V76.7383H2.6883ZM2.6883 52.8131H6.59016L7.05752 52.7757H7.57986C9.3845 52.7757 10.7718 52.9772 11.7429 53.3811C12.8003 53.8085 13.6192 54.4482 14.1975 55.3022C14.7758 56.1571 15.0655 57.1398 15.0655 58.2502C15.0655 59.1897 14.8662 60.0466 14.4685 60.8219C14.0699 61.5963 13.4975 62.2163 12.7513 62.6792C12.1288 63.0703 11.41 63.3415 10.5951 63.4938C9.78018 63.6471 8.68739 63.7228 7.31869 63.7228H2.6883V52.8131ZM27.0725 76.7383V65.8277C27.0725 64.3271 27.2404 63.2648 27.5771 62.6428C28.074 61.6798 28.8526 60.8671 29.911 60.2087C30.6327 59.8058 31.5664 59.5434 32.7112 59.4216V56.8224C31.4044 56.9197 30.396 57.1221 29.6871 57.4267C29.0529 57.695 28.505 58.0557 28.0445 58.5067C27.6714 58.8477 27.2983 59.3607 26.9242 60.0436V57.243H24.4038V76.7383H27.0735H27.0725ZM43.0756 58.2227C41.5076 59.1563 40.2626 60.4161 39.3416 62.0021C38.4089 63.5764 37.9415 65.2725 37.9415 67.0914C37.9415 68.9103 38.4109 70.5779 39.3505 72.1345C40.2901 73.6901 41.5626 74.9135 43.1679 75.8038C44.7732 76.7197 46.4973 77.1766 48.3383 77.1766C50.1793 77.1766 51.9103 76.7167 53.491 75.794C55.0708 74.8732 56.3286 73.6252 57.2623 72.051C58.1951 70.4767 58.6624 68.7747 58.6624 66.944C58.6624 65.1133 58.1892 63.4574 57.2437 61.9019C56.2972 60.3453 55.0188 59.1101 53.4076 58.1952C51.7954 57.2793 50.0438 56.8224 48.1527 56.8224C46.2617 56.8224 44.6436 57.2882 43.0746 58.2227H43.0756ZM48.4895 59.3302C49.8091 59.3302 51.0472 59.6712 52.2048 60.3551C53.3624 61.0381 54.2805 61.9598 54.9579 63.1194C55.6364 64.279 55.9751 65.5171 55.9751 66.8349C55.9751 68.2873 55.6423 69.611 54.9766 70.8069C54.3109 72.0028 53.3988 72.9482 52.2421 73.6439C51.0718 74.3269 49.7836 74.6688 48.3786 74.6688C46.9735 74.6688 45.6746 74.3337 44.4865 73.6626C43.2975 72.9914 42.3549 72.0696 41.6578 70.8983C40.9735 69.7397 40.6308 68.4701 40.6308 67.0914C40.6308 65.7127 40.9637 64.3998 41.6293 63.2285C42.295 62.0571 43.219 61.1305 44.4011 60.4455C45.5705 59.7508 46.8842 59.3783 48.3403 59.3302H48.4895ZM69.9056 76.7383V59.6407H74.8335V57.242H69.9056V56.8578C69.9056 54.1613 71.3734 52.8121 74.3111 52.8121H74.7971V50.4134H74.3111C73.2409 50.4134 72.2581 50.5598 71.3616 50.8526C70.478 51.1573 69.722 51.5995 69.0936 52.1792C68.4652 52.759 67.9949 53.4587 67.6836 54.2763C67.3724 55.0575 67.2173 56.0451 67.2173 57.241H64.1372V59.6397H67.2173V76.7374H69.9056V76.7383ZM95.8391 72.8027C95.4032 73.181 94.8681 73.5289 94.2338 73.8463C93.1007 74.3956 91.8695 74.6688 90.5371 74.6688C89.0555 74.6688 87.7055 74.3337 86.486 73.6626C85.2538 72.9796 84.2896 72.051 83.5925 70.8796C82.8954 69.6965 82.5469 68.3846 82.5469 66.944C82.5469 65.5034 82.9023 64.2898 83.6112 63.1184C84.3211 61.9471 85.2911 61.0253 86.5233 60.3541C87.7556 59.6712 89.1056 59.3292 90.5735 59.3292C92.4782 59.3292 94.17 59.9454 95.6516 61.1776C96.2368 61.666 96.821 62.3244 97.4061 63.1548H100.43C99.796 61.8124 99.1047 60.7629 98.3585 60.0063C96.2309 57.8827 93.6476 56.8214 90.6118 56.8214C88.6697 56.8214 86.8719 57.2784 85.2165 58.1942C83.5611 59.0973 82.2543 60.3296 81.296 61.892C80.3377 63.4535 79.8586 65.1614 79.8586 67.0177C79.8586 68.874 80.3377 70.5996 81.296 72.161C82.2543 73.7107 83.5611 74.9371 85.2165 75.8402C86.8709 76.7305 88.6952 77.1756 90.6854 77.1756C93.5229 77.1756 95.9432 76.2539 97.9471 74.4123C98.4332 73.9731 98.8406 73.524 99.1705 73.0671C99.4994 72.6091 99.9079 71.9291 100.393 71.026H97.4061C96.7964 71.8191 96.2731 72.4106 95.8381 72.8017L95.8391 72.8027ZM97.9835 74.4507C98.4685 74.0114 98.8819 73.5564 99.2137 73.0965C99.5466 72.6337 99.9589 71.9458 100.44 71.0496L100.479 70.9759H97.3816L97.3659 70.9956C96.7611 71.7817 96.2358 72.3772 95.8047 72.7634C95.3737 73.1368 94.8376 73.4857 94.2112 73.8001C93.0919 74.3426 91.8558 74.6177 90.5371 74.6177C89.0712 74.6177 87.7163 74.2816 86.5116 73.6183C85.2931 72.9423 84.326 72.0126 83.6377 70.8541C82.9484 69.6847 82.5989 68.3689 82.5989 66.943C82.5989 65.5171 82.9543 64.3025 83.6554 63.143C84.3564 61.9844 85.3304 61.0607 86.5489 60.3974C87.7673 59.7223 89.1213 59.3793 90.5744 59.3793C92.4576 59.3793 94.1543 59.9974 95.6192 61.216C96.1985 61.6994 96.7856 62.3618 97.3649 63.1833L97.3806 63.2049H100.512L100.477 63.1332C99.8431 61.7908 99.142 60.7276 98.3958 59.9709C96.2682 57.8473 93.6496 56.7703 90.6118 56.7703C88.6687 56.7703 86.8454 57.2351 85.192 58.15C83.5356 59.0531 82.2101 60.304 81.2518 61.8655C80.2935 63.428 79.8075 65.1604 79.8075 67.0167C79.8075 68.873 80.2935 70.6241 81.2518 72.1866C82.2101 73.7363 83.5356 74.9803 85.192 75.8844C86.8464 76.7747 88.6952 77.2267 90.6864 77.2267C93.5239 77.2267 95.9785 76.2922 97.9835 74.4497V74.4507ZM98.3222 60.0417C99.0478 60.7757 99.7302 61.8065 100.351 63.1047H97.4346C96.8553 62.2851 96.2672 61.6247 95.6859 61.1393C94.2024 59.9051 92.4822 59.2791 90.5744 59.2791C89.1036 59.2791 87.732 59.626 86.4988 60.3099C85.2636 60.9821 84.2779 61.9186 83.567 63.0929C82.8561 64.2672 82.4958 65.5633 82.4958 66.944C82.4958 68.3246 82.8503 69.7191 83.5483 70.9052C84.2464 72.0785 85.2263 73.0209 86.4615 73.7058C87.6819 74.3779 89.0536 74.718 90.5381 74.718C91.8724 74.718 93.1233 74.4399 94.2574 73.8896C94.8926 73.5722 95.4365 73.2184 95.8745 72.8381C96.3065 72.4499 96.8318 71.8574 97.4336 71.0761H100.309C99.847 71.9321 99.4503 72.5914 99.1303 73.0376C98.8033 73.4916 98.3939 73.9407 97.9137 74.376C95.9294 76.2008 93.4974 77.1255 90.6874 77.1255C88.7138 77.1255 86.8817 76.6784 85.243 75.796C83.6033 74.9007 82.2906 73.6694 81.3411 72.1345C80.3927 70.5878 79.9116 68.8671 79.9116 67.0167C79.9116 65.1663 80.3927 63.4633 81.3411 61.9166C82.2896 60.3699 83.6023 59.1317 85.243 58.2365C86.8817 57.3295 88.6883 56.8696 90.6127 56.8696C93.6221 56.8696 96.2161 57.9358 98.3222 60.0397V60.0417ZM111.88 58.2217C110.311 59.1553 109.067 60.4151 108.146 62.0011C107.213 63.5754 106.745 65.2715 106.745 67.0904C106.745 68.9093 107.216 70.577 108.155 72.1335C109.095 73.6891 110.368 74.9125 111.973 75.8028C113.579 76.7187 115.302 77.1756 117.144 77.1756C118.986 77.1756 120.716 76.7157 122.297 75.793C123.877 74.8722 125.134 73.6242 126.068 72.05C127.001 70.4757 127.468 68.7737 127.468 66.943C127.468 65.1123 126.995 63.4565 126.05 61.9009C125.103 60.3443 123.825 59.1091 122.213 58.1942C120.601 57.2784 118.849 56.8214 116.958 56.8214C115.067 56.8214 113.449 57.2872 111.881 58.2217H111.88ZM117.292 59.3292C118.612 59.3292 119.85 59.6702 121.008 60.3541C122.165 61.0371 123.083 61.9589 123.762 63.1184C124.44 64.278 124.779 65.5162 124.779 66.8339C124.779 68.2863 124.446 69.61 123.781 70.8059C123.115 72.0018 122.203 72.9472 121.045 73.6429C119.876 74.3259 118.587 74.6678 117.182 74.6678C115.776 74.6678 114.478 74.3327 113.289 73.6616C112.1 72.9904 111.158 72.0686 110.461 70.8973C109.776 69.7387 109.434 68.4691 109.434 67.0904C109.434 65.7117 109.767 64.3988 110.433 63.2275C111.099 62.0561 112.022 61.1295 113.205 60.4445C114.374 59.7498 115.688 59.3774 117.144 59.3292H117.293H117.292ZM122.322 75.8372C123.902 74.9165 125.177 73.6508 126.111 72.0755C127.045 70.5013 127.518 68.7747 127.518 66.943C127.518 65.1113 127.039 63.4319 126.093 61.8744C125.146 60.3178 123.849 59.0649 122.237 58.15C120.626 57.2341 118.85 56.7703 116.957 56.7703C115.064 56.7703 113.42 57.244 111.853 58.1785C110.285 59.1111 109.023 60.3895 108.101 61.9765C107.168 63.5508 106.694 65.2715 106.694 67.0904C106.694 68.9093 107.172 70.6025 108.111 72.1591C109.051 73.7156 110.342 74.9558 111.947 75.8471C113.553 76.7619 115.301 77.2267 117.144 77.2267C118.987 77.2267 120.744 76.759 122.323 75.8372H122.322ZM122.186 58.2375C123.782 59.1435 125.068 60.3846 126.004 61.9264C126.941 63.4683 127.416 65.1555 127.416 66.943C127.416 68.7305 126.948 70.4669 126.023 72.0254C125.097 73.5859 123.835 74.8388 122.27 75.7507C120.706 76.6627 118.981 77.1255 117.144 77.1255C115.307 77.1255 113.589 76.6656 111.998 75.7596C110.409 74.8772 109.13 73.6488 108.2 72.108C107.27 70.5661 106.798 68.8779 106.798 67.0904C106.798 65.3029 107.266 63.5862 108.191 62.0267C109.104 60.4544 110.354 59.1887 111.906 58.265C113.457 57.3403 115.157 56.8715 116.957 56.8715C118.756 56.8715 120.59 57.3314 122.186 58.2384V58.2375ZM121.072 73.6861C122.232 72.9875 123.159 72.0274 123.825 70.8295C124.491 69.6316 124.83 68.2863 124.83 66.8329C124.83 65.5112 124.485 64.2524 123.806 63.0919C123.127 61.9304 122.194 60.9949 121.034 60.3099C119.875 59.625 118.616 59.2781 117.292 59.2781H117.142C115.683 59.3263 114.35 59.7046 113.179 60.4013C111.992 61.0882 111.054 62.0306 110.388 63.2029C109.721 64.3772 109.383 65.6852 109.383 67.0904C109.383 68.4956 109.73 69.7623 110.417 70.9229C111.115 72.0972 112.073 73.0327 113.264 73.7058C114.454 74.3779 115.772 74.7189 117.182 74.7189C118.591 74.7189 119.9 74.3721 121.073 73.6871L121.072 73.6861ZM117.292 59.3793C118.596 59.3793 119.837 59.7213 120.981 60.3974C122.126 61.0735 123.046 61.9972 123.718 63.143C124.388 64.2888 124.728 65.5309 124.728 66.8339C124.728 68.2706 124.394 69.5992 123.736 70.7823C123.078 71.9635 122.164 72.9118 121.02 73.6006C119.864 74.2757 118.573 74.6177 117.183 74.6177C115.792 74.6177 114.49 74.2816 113.316 73.6183C112.141 72.955 111.195 72.0303 110.507 70.8727C109.829 69.7269 109.487 68.4544 109.487 67.0914C109.487 65.7284 109.821 64.4116 110.479 63.253C111.136 62.0964 112.062 61.1668 113.233 60.4888C114.389 59.8019 115.706 59.4285 117.146 59.3803H117.294L117.292 59.3793ZM133.799 74.1932C134.323 75.1326 135.056 75.8657 136.002 76.3905C136.948 76.9142 138.006 77.1766 139.175 77.1766C140.992 77.1766 142.498 76.5909 143.693 75.4196C144.888 74.2364 145.485 72.7595 145.485 70.9907C145.485 70.0266 145.305 69.2022 144.943 68.5192C144.582 67.8235 143.998 67.2191 143.189 66.7062C142.355 66.1942 141.272 65.7245 139.941 65.298C139.057 65.017 138.488 64.8214 138.232 64.7113C137.977 64.6023 137.663 64.4126 137.29 64.1443C136.705 63.596 136.412 62.918 136.412 62.1122C136.412 61.3064 136.683 60.6725 137.224 60.135C137.765 59.5985 138.44 59.3302 139.25 59.3302C140.146 59.3302 140.864 59.5768 141.406 60.0711C141.948 60.5654 142.236 61.2464 142.274 62.1122H144.999C144.899 60.5379 144.334 59.2634 143.301 58.2866C142.28 57.3108 140.991 56.8224 139.436 56.8224C137.881 56.8224 136.498 57.3471 135.404 58.3967C134.283 59.4589 133.724 60.7462 133.724 62.2596C133.724 64.2003 134.557 65.6645 136.225 66.6521C136.798 66.9813 137.707 67.3302 138.951 67.6957C140.184 68.0495 141.087 68.4652 141.659 68.9398C142.418 69.5746 142.798 70.3991 142.798 71.4112C142.798 72.3507 142.468 73.129 141.809 73.7451C141.148 74.3622 140.322 74.6688 139.326 74.6688C138.28 74.6688 137.424 74.3308 136.76 73.6537C136.094 72.9767 135.736 72.0883 135.685 70.9907H133.016C133.016 72.1866 133.277 73.2538 133.8 74.1942L133.799 74.1932ZM143.73 75.455C144.929 74.2669 145.536 72.7654 145.536 70.9897C145.536 70.0217 145.353 69.1825 144.989 68.4956C144.625 67.794 144.029 67.1779 143.216 66.6629C142.383 66.151 141.286 65.6753 139.956 65.2489C139.06 64.9639 138.503 64.7723 138.253 64.6642C138.001 64.5561 137.687 64.3664 137.325 64.106C136.754 63.5704 136.464 62.8993 136.464 62.1112C136.464 61.3231 136.732 60.6951 137.261 60.1694C137.79 59.6456 138.458 59.3793 139.251 59.3793C140.129 59.3793 140.843 59.624 141.371 60.1065C141.901 60.59 142.186 61.2641 142.223 62.1122L142.225 62.1603H145.054L145.051 62.1063C144.95 60.5261 144.374 59.228 143.337 58.2473C142.311 57.2666 140.998 56.7684 139.436 56.7684C137.874 56.7684 136.468 57.3029 135.368 58.3564C134.243 59.4235 133.672 60.7354 133.672 62.2556C133.672 64.2062 134.522 65.6989 136.199 66.6914C136.774 67.0226 137.694 67.3754 138.935 67.74C140.155 68.0898 141.059 68.5055 141.624 68.9742C142.367 69.5962 142.744 70.4148 142.744 71.4073C142.744 72.3281 142.417 73.1014 141.771 73.7048C141.124 74.3092 140.3 74.6148 139.323 74.6148C138.296 74.6148 137.445 74.2787 136.793 73.6144C136.139 72.9501 135.784 72.0647 135.734 70.9838L135.732 70.9356H132.962V70.9857C132.962 72.1846 133.228 73.2705 133.752 74.2129C134.277 75.1572 135.025 75.9031 135.974 76.4298C136.925 76.9565 138.001 77.2228 139.173 77.2228C140.995 77.2228 142.528 76.6263 143.728 75.451L143.73 75.455ZM135.635 71.0398C135.694 72.1247 136.06 73.015 136.721 73.6881C137.393 74.3721 138.27 74.7189 139.325 74.7189C140.381 74.7189 141.177 74.4035 141.844 73.7815C142.51 73.1584 142.849 72.3605 142.849 71.4112C142.849 70.3873 142.46 69.5432 141.692 68.9015C141.116 68.4229 140.199 68.0014 138.967 67.6466C137.734 67.285 136.82 66.9351 136.253 66.6079C134.609 65.6351 133.776 64.1719 133.776 62.2586C133.776 60.7669 134.336 59.4796 135.441 58.432C136.521 57.3973 137.865 56.8725 139.437 56.8725C141.009 56.8725 142.26 57.3609 143.266 58.3229C144.272 59.2742 144.837 60.532 144.945 62.062H142.324C142.278 61.2091 141.981 60.5271 141.442 60.0348C140.894 59.5346 140.157 59.2801 139.251 59.2801C138.432 59.2801 137.737 59.5562 137.19 60.0996C136.641 60.644 136.363 61.3221 136.363 62.1122C136.363 62.9022 136.663 63.6245 137.261 64.1846C137.634 64.4529 137.954 64.6465 138.214 64.7575C138.466 64.8676 139.027 65.0602 139.927 65.3462C141.248 65.7697 142.336 66.2414 143.163 66.7494C143.96 67.2535 144.545 67.8569 144.9 68.5428C145.255 69.2159 145.436 70.0394 145.436 70.9907C145.436 72.7379 144.838 74.2168 143.66 75.3842C142.481 76.5408 140.973 77.1265 139.178 77.1265C138.024 77.1265 136.965 76.8641 136.03 76.3463C135.098 75.8294 134.364 75.0963 133.847 74.1686C133.339 73.2538 133.077 72.2013 133.07 71.0398H135.638H135.635ZM154.768 76.7374V65.5899C154.768 64.4912 154.835 63.652 154.973 63.0722C155.109 62.4925 155.365 61.9461 155.738 61.4341C156.161 60.8121 156.772 60.2991 157.568 59.8972C158.351 59.5189 159.166 59.3302 160.013 59.3302C160.797 59.3302 161.54 59.4894 162.243 59.8058C162.945 60.1232 163.559 60.5684 164.081 61.1423C164.605 61.7034 164.978 62.35 165.202 63.083C165.376 63.6805 165.463 64.5168 165.463 65.5908V76.7383H168.188V65.864C168.188 64.6445 168.242 63.7542 168.348 63.1921C168.453 62.631 168.668 62.0817 168.992 61.5442C169.987 60.0682 171.505 59.3302 173.546 59.3302C177.106 59.3302 178.885 61.5078 178.885 65.864V76.7383H181.574V65.6449C181.574 63.7532 181.269 62.1544 180.659 60.8484C180.049 59.5425 179.141 58.5578 177.933 57.8916C176.726 57.2273 175.251 56.8941 173.509 56.8941C171.903 56.8941 170.578 57.2115 169.533 57.8454C168.487 58.4674 167.597 59.4874 166.863 60.9025C166.278 59.511 165.475 58.4959 164.456 57.8542C163.434 57.2135 162.134 56.8932 160.554 56.8932C159.109 56.8932 157.937 57.131 157.035 57.6066C156.132 58.0832 155.326 58.8821 154.617 60.0053V57.2223H152.097V76.7364H154.767L154.768 76.7374ZM181.626 65.6439C181.626 63.7542 181.317 62.1338 180.706 60.8268C180.095 59.5189 179.171 58.5165 177.96 57.8473C176.749 57.1811 175.252 56.844 173.51 56.844C171.904 56.844 170.557 57.1663 169.507 57.8031C168.483 58.4124 167.595 59.4147 166.869 60.7836C166.286 59.4403 165.484 58.4409 164.484 57.812C163.46 57.1693 162.137 56.843 160.555 56.843C159.109 56.843 157.917 57.0848 157.011 57.5624C156.145 58.0193 155.358 58.7828 154.669 59.8314V57.1732H152.046V76.7885H154.818V65.5899C154.818 64.4971 154.886 63.654 155.022 63.084C155.156 62.5141 155.411 61.9687 155.779 61.4626C156.195 60.8514 156.804 60.3394 157.589 59.9424C158.362 59.569 159.177 59.3803 160.012 59.3803C160.784 59.3803 161.528 59.5385 162.221 59.851C162.914 60.1645 163.527 60.6096 164.043 61.1757C164.558 61.7279 164.931 62.3745 165.152 63.0958C165.323 63.6874 165.411 64.5266 165.411 65.5899V76.7885H168.239V65.864C168.239 64.6534 168.292 63.7581 168.397 63.201C168.5 62.6487 168.715 62.1004 169.033 61.5717C170.014 60.1173 171.532 59.3803 173.545 59.3803C177.054 59.3803 178.833 61.5619 178.833 65.864V76.7885H181.624V65.6449L181.626 65.6439ZM178.938 65.863C178.938 61.4941 177.124 59.2781 173.547 59.2781C171.497 59.2781 169.95 60.0308 168.948 61.5176C168.622 62.0581 168.404 62.6182 168.298 63.1823C168.192 63.7444 168.138 64.6465 168.138 65.863V76.6872H165.516V65.5899C165.516 64.5178 165.428 63.6687 165.253 63.0673C165.027 62.3303 164.646 61.6709 164.122 61.1079C163.597 60.532 162.973 60.078 162.266 59.7586C161.559 59.4403 160.801 59.2781 160.014 59.2781C159.163 59.2781 158.333 59.4707 157.544 59.851C156.743 60.2559 156.122 60.7787 155.696 61.4036C155.321 61.9196 155.061 62.4767 154.924 63.0595C154.786 63.6373 154.717 64.4873 154.717 65.5879V76.6853H152.15V57.2725H154.567V60.1822L154.663 60.0308C155.364 58.9214 156.17 58.1205 157.06 57.6508C157.951 57.1811 159.127 56.9433 160.555 56.9433C162.118 56.9433 163.422 57.2636 164.429 57.8965C165.435 58.5293 166.24 59.5474 166.817 60.9212L166.859 61.0224L166.91 60.9251C167.637 59.5238 168.529 58.5018 169.561 57.8876C170.595 57.2607 171.923 56.9433 173.51 56.9433C175.234 56.9433 176.714 57.2764 177.909 57.9338C179.102 58.5922 180.011 59.5788 180.613 60.8671C181.217 62.1603 181.523 63.767 181.523 65.6419V76.6853H178.937V65.8611L178.938 65.863ZM193.899 58.2217C192.331 59.1553 191.086 60.4151 190.165 62.0011C189.232 63.5754 188.765 65.2715 188.765 67.0904C188.765 68.9093 189.235 70.577 190.175 72.1335C191.115 73.6891 192.387 74.9125 193.992 75.8028C195.599 76.7187 197.322 77.1756 199.164 77.1756C201.006 77.1756 202.736 76.7157 204.317 75.793C205.897 74.8722 207.154 73.6242 208.088 72.05C209.021 70.4757 209.488 68.7737 209.488 66.943C209.488 65.1123 209.015 63.4565 208.069 61.9009C207.123 60.3443 205.844 59.1091 204.233 58.1942C202.621 57.2784 200.869 56.8214 198.978 56.8214C197.087 56.8214 195.468 57.2872 193.9 58.2217H193.899ZM199.313 59.3292C200.632 59.3292 201.87 59.6702 203.027 60.3541C204.185 61.0371 205.103 61.9589 205.781 63.1184C206.46 64.278 206.799 65.5162 206.799 66.8339C206.799 68.2863 206.466 69.61 205.8 70.8059C205.134 72.0018 204.223 72.9472 203.066 73.6429C201.895 74.3259 200.607 74.6678 199.201 74.6678C197.795 74.6678 196.497 74.3327 195.309 73.6616C194.12 72.9904 193.178 72.0686 192.48 70.8973C191.796 69.7387 191.454 68.4691 191.454 67.0904C191.454 65.7117 191.786 64.3988 192.453 63.2275C193.119 62.0561 194.042 61.1295 195.226 60.4445C196.395 59.7498 197.708 59.3774 199.164 59.3292H199.314H199.313ZM204.342 75.8372C205.923 74.9165 207.198 73.6508 208.131 72.0755C209.065 70.5013 209.538 68.7747 209.538 66.943C209.538 65.1113 209.058 63.4329 208.111 61.8744C207.165 60.3178 205.868 59.0649 204.257 58.15C202.644 57.2341 200.868 56.7703 198.976 56.7703C197.084 56.7703 195.439 57.244 193.872 58.1785C192.304 59.112 191.041 60.3895 190.12 61.9765C189.186 63.5508 188.713 65.2715 188.713 67.0904C188.713 68.9093 189.19 70.6025 190.13 72.1591C191.069 73.7156 192.361 74.9558 193.966 75.8471C195.571 76.7619 197.32 77.2267 199.163 77.2267C201.006 77.2267 202.761 76.759 204.341 75.8372H204.342ZM204.207 58.2375C205.803 59.1435 207.087 60.3846 208.024 61.9264C208.961 63.4683 209.436 65.1565 209.436 66.943C209.436 68.7295 208.968 70.4659 208.042 72.0254C207.118 73.5849 205.855 74.8388 204.289 75.7507C202.725 76.6627 201.001 77.1255 199.163 77.1255C197.325 77.1255 195.607 76.6656 194.017 75.7596C192.426 74.8772 191.149 73.6488 190.218 72.108C189.287 70.5661 188.815 68.8779 188.815 67.0904C188.815 65.3029 189.283 63.5862 190.208 62.0267C191.121 60.4554 192.371 59.1897 193.924 58.265C195.475 57.3403 197.175 56.8715 198.975 56.8715C200.776 56.8715 202.609 57.3314 204.205 58.2384L204.207 58.2375ZM203.093 73.6861C204.253 72.9884 205.179 72.0274 205.845 70.8295C206.512 69.6306 206.85 68.2863 206.85 66.8329C206.85 65.5112 206.505 64.2524 205.826 63.0919C205.147 61.9313 204.214 60.9949 203.054 60.3099C201.894 59.625 200.636 59.2781 199.313 59.2781H199.162C197.704 59.3263 196.37 59.7046 195.199 60.4013C194.012 61.0882 193.073 62.0306 192.408 63.2029C191.741 64.3762 191.403 65.6842 191.403 67.0904C191.403 68.4966 191.751 69.7633 192.436 70.9229C193.134 72.0972 194.093 73.0327 195.284 73.7058C196.473 74.3779 197.79 74.7189 199.201 74.7189C200.612 74.7189 201.92 74.3721 203.093 73.6871V73.6861ZM199.314 59.3793C200.617 59.3793 201.858 59.7213 203.002 60.3974C204.147 61.0735 205.068 61.9972 205.737 63.143C206.408 64.2888 206.748 65.5309 206.748 66.8339C206.748 68.2706 206.414 69.5992 205.756 70.7823C205.097 71.9635 204.183 72.9128 203.04 73.6006C201.884 74.2757 200.592 74.6177 199.201 74.6177C197.81 74.6177 196.509 74.2816 195.336 73.6183C194.16 72.955 193.215 72.0303 192.526 70.8727C191.849 69.7289 191.506 68.4563 191.506 67.0914C191.506 65.7264 191.84 64.4106 192.498 63.253C193.154 62.0974 194.081 61.1668 195.252 60.4888C196.409 59.8019 197.725 59.4285 199.165 59.3803H199.314V59.3793Z" fill="#FF6B00"/>
</g>
<defs>
<clipPath id="clip0_41_27">
<rect width="213" height="134" fill="white"/>
</clipPath>
</defs>
</svg>
